<svg width="752" height="735" viewBox="0 0 752 735" fill="none" xmlns="http://www.w3.org/2000/svg">
<path d="M680.111 482.856C608.191 650.946 418.371 723.136 269.631 710.856C229.021 707.486 147.321 700.727 83.5212 640.396C-38.9988 524.536 -20.1286 282.396 97.1514 139.756C112.261 121.396 216.811 -1.63356 379.731 0.016444C499.011 1.22644 582.731 68.6064 592.911 77.0164C618.95 98.68 641.48 124.242 659.701 152.796C719.761 246.656 725.041 377.816 680.111 482.856Z" fill="#092341"/>
<path d="M318.771 582.526L304.731 679.446H467.661L446.441 582.526H318.771Z" fill="#F7991D"/>
<path d="M671.371 232.037H67.9513C55.0886 232.037 44.6613 242.464 44.6613 255.327V588.747C44.6613 601.61 55.0886 612.037 67.9513 612.037H671.371C684.234 612.037 694.661 601.61 694.661 588.747V255.327C694.661 242.464 684.234 232.037 671.371 232.037Z" fill="#F7C217"/>
<path d="M650.981 262.337H88.3513C82.0387 262.337 76.9213 267.454 76.9213 273.767V561.607C76.9213 567.92 82.0387 573.037 88.3513 573.037H650.981C657.294 573.037 662.411 567.92 662.411 561.607V273.767C662.411 267.454 657.294 262.337 650.981 262.337Z" fill="white"/>
<path d="M88.3413 262.337H651.001C654.033 262.337 656.94 263.541 659.084 265.685C661.227 267.828 662.431 270.736 662.431 273.767V320.137H76.9213V273.757C76.924 270.729 78.128 267.826 80.2691 265.685C82.4102 263.544 85.3134 262.34 88.3413 262.337Z" fill="#729AD1"/>
<path d="M175.111 50.1768H584.641C587.313 50.1715 589.96 50.6932 592.43 51.7121C594.9 52.7309 597.145 54.2268 599.036 56.1142C600.927 58.0016 602.427 60.2435 603.451 62.7114C604.474 65.1794 605.001 67.825 605.001 70.4968V573.037H154.791V70.4968C154.791 65.1076 156.932 59.9391 160.743 56.1284C164.554 52.3176 169.722 50.1768 175.111 50.1768Z" fill="#B2CBEA"/>
<path d="M493.191 672.837H272.571C264.143 672.837 257.311 679.669 257.311 688.097V691.267C257.311 699.695 264.143 706.527 272.571 706.527H493.191C501.619 706.527 508.451 699.695 508.451 691.267V688.097C508.451 679.669 501.619 672.837 493.191 672.837Z" fill="#F7C217"/>
<path d="M557.231 305.157H195.721C190.292 305.157 185.891 309.558 185.891 314.987V366.107C185.891 371.536 190.292 375.937 195.721 375.937H557.231C562.66 375.937 567.061 371.536 567.061 366.107V314.987C567.061 309.558 562.66 305.157 557.231 305.157Z" fill="white"/>
<path d="M328.891 250.267H194.951C189.948 250.267 185.891 254.323 185.891 259.327V278.907C185.891 283.91 189.948 287.967 194.951 287.967H328.891C333.895 287.967 337.951 283.91 337.951 278.907V259.327C337.951 254.323 333.895 250.267 328.891 250.267Z" fill="#729AD1"/>
<path d="M557.231 463.157H195.721C190.292 463.157 185.891 467.558 185.891 472.987V524.107C185.891 529.536 190.292 533.937 195.721 533.937H557.231C562.66 533.937 567.061 529.536 567.061 524.107V472.987C567.061 467.558 562.66 463.157 557.231 463.157Z" fill="white"/>
<path d="M328.891 408.267H194.951C189.948 408.267 185.891 412.323 185.891 417.327V436.907C185.891 441.91 189.948 445.967 194.951 445.967H328.891C333.895 445.967 337.951 441.91 337.951 436.907V417.327C337.951 412.323 333.895 408.267 328.891 408.267Z" fill="#729AD1"/>
<path d="M379.871 215.726C413.754 215.726 441.221 188.259 441.221 154.376C441.221 120.494 413.754 93.0264 379.871 93.0264C345.989 93.0264 318.521 120.494 318.521 154.376C318.521 188.259 345.989 215.726 379.871 215.726Z" fill="white"/>
<path d="M379.871 104.957C373.381 104.956 366.954 106.233 360.958 108.716C354.961 111.199 349.512 114.84 344.923 119.429C340.334 124.018 336.694 129.467 334.21 135.463C331.727 141.46 330.45 147.887 330.451 154.377C330.45 160.867 331.727 167.294 334.21 173.291C336.694 179.287 340.334 184.736 344.923 189.325C349.512 193.915 354.961 197.555 360.958 200.038C366.954 202.521 373.381 203.798 379.871 203.797C386.364 203.802 392.794 202.528 398.794 200.046C404.794 197.565 410.246 193.926 414.839 189.336C419.431 184.746 423.074 179.296 425.559 173.298C428.044 167.299 429.323 160.87 429.321 154.377C429.323 147.884 428.044 141.455 425.559 135.456C423.074 129.458 419.431 124.008 414.839 119.418C410.246 114.829 404.794 111.189 398.794 108.708C392.794 106.226 386.364 104.952 379.871 104.957ZM379.871 124.087C382.177 124.087 384.46 124.542 386.59 125.425C388.72 126.308 390.655 127.603 392.285 129.235C393.914 130.867 395.205 132.804 396.085 134.936C396.964 137.067 397.415 139.351 397.411 141.657C397.409 146.307 395.559 150.766 392.27 154.053C388.981 157.34 384.522 159.187 379.871 159.187C377.568 159.19 375.286 158.738 373.157 157.858C371.028 156.979 369.093 155.688 367.463 154.06C365.833 152.432 364.54 150.498 363.657 148.37C362.775 146.242 362.321 143.961 362.321 141.657C362.316 139.35 362.766 137.064 363.646 134.932C364.526 132.799 365.818 130.861 367.448 129.229C369.079 127.596 371.016 126.302 373.147 125.42C375.279 124.537 377.564 124.084 379.871 124.087ZM379.871 192.637C374.31 192.635 368.815 191.418 363.773 189.071C358.731 186.723 354.263 183.302 350.681 179.047C352.559 175.46 355.381 172.454 358.842 170.353C362.303 168.253 366.272 167.137 370.321 167.127C370.8 167.131 371.275 167.205 371.731 167.347C374.358 168.234 377.109 168.7 379.881 168.727C382.654 168.701 385.405 168.236 388.031 167.347C388.491 167.204 388.97 167.13 389.451 167.127C393.497 167.14 397.462 168.256 400.92 170.357C404.377 172.458 407.196 175.462 409.071 179.047C405.491 183.307 401.022 186.733 395.978 189.084C390.933 191.435 385.436 192.654 379.871 192.657V192.637Z" fill="#729AD1"/>
<path d="M489.131 702.656C497.641 703.396 512.391 704.586 524.031 705.096C531.031 705.406 535.031 704.726 537.371 703.796C537.371 704.056 537.371 704.306 537.371 704.536C537.34 705.13 537.089 705.691 536.668 706.11C536.247 706.529 535.685 706.777 535.091 706.806C519.873 707.654 504.619 707.654 489.401 706.806C489.107 706.791 488.822 706.701 488.572 706.544C488.323 706.386 488.118 706.168 487.978 705.909C487.837 705.65 487.766 705.359 487.77 705.064C487.774 704.77 487.854 704.481 488.001 704.226C488.344 703.679 488.722 703.155 489.131 702.656Z" fill="#2853A1"/>
<path d="M524.031 705.106C512.391 704.596 497.641 703.406 489.131 702.666C497.491 692.416 524.031 685.496 524.031 685.496H531.521C535.333 690.84 537.379 697.242 537.371 703.806C535.051 704.736 531.021 705.416 524.031 705.106Z" fill="#2853A1"/>
<path d="M532.781 673.267L532.081 687.147C532.05 687.882 531.763 688.584 531.27 689.132C530.778 689.679 530.11 690.038 529.381 690.147C527.494 690.427 525.567 690.266 523.751 689.677C523.111 689.468 522.539 689.09 522.095 688.583C521.652 688.076 521.353 687.459 521.231 686.797L518.801 673.287L532.781 673.267Z" fill="#FAAB77"/>
<path d="M630.121 705.006C633.811 704.496 635.481 702.576 636.181 700.526V700.586C636.721 702.746 635.471 704.986 632.951 706.046C630.108 707.157 627.058 707.635 624.011 707.446C622.738 707.443 621.481 707.165 620.324 706.632C619.168 706.099 618.14 705.323 617.311 704.356C620.071 705.706 623.971 705.866 630.121 705.006Z" fill="#2853A1"/>
<path d="M612.741 673.176H618.921C628.331 672.986 634.241 692.836 636.181 700.526C635.481 702.576 633.811 704.526 630.121 705.006C623.971 705.866 620.121 705.706 617.301 704.326C612.211 697.636 609.691 687.836 608.481 682.116C608.047 680.363 608.234 678.514 609.01 676.883C609.787 675.253 611.106 673.943 612.741 673.176Z" fill="#2853A1"/>
<path d="M618.121 660.297L621.551 673.947C621.755 674.761 621.676 675.62 621.327 676.383C620.978 677.146 620.38 677.768 619.631 678.147C617.711 679.147 615.001 680.147 612.521 679.867C611.95 679.794 611.411 679.563 610.966 679.198C610.52 678.834 610.186 678.352 610.001 677.807L605.001 663.437L618.121 660.297Z" fill="#FAAB77"/>
<path d="M622.221 664.246C617.951 668.026 604.061 668.526 604.061 668.526C554.061 548.466 533.571 531.406 533.571 531.406C540.791 576.726 534.731 677.056 534.731 677.056C526.481 680.696 515.841 677.056 515.841 677.056C515.235 612.94 506.663 549.148 490.321 487.146C524.131 486.386 542.111 474.816 547.981 470.146C576.141 515.656 622.221 664.246 622.221 664.246Z" fill="#2853A1"/>
<path d="M539.371 332.097C545.771 364.017 543.471 421.157 541.961 447.217C541.541 454.537 546.651 464.697 550.791 471.617C550.946 471.873 551.046 472.158 551.085 472.454C551.125 472.751 551.102 473.052 551.02 473.339C550.937 473.626 550.796 473.894 550.605 474.124C550.415 474.354 550.178 474.542 549.911 474.677C542.991 478.237 519.551 489.257 492.381 490.627C491.498 490.66 490.63 490.391 489.921 489.863C489.212 489.336 488.704 488.582 488.481 487.727C468.321 412.477 444.921 364.397 444.921 364.397C470.761 323.127 539.371 332.097 539.371 332.097Z" fill="#F7C217"/>
<path d="M579.511 423.706C577.451 438.586 571.381 454.806 559.231 472.036L554.611 468.266C557.884 453.101 558.661 437.502 556.911 422.086C564.411 420.656 573.261 422.126 579.511 423.706Z" fill="#FAAB77"/>
<path d="M532.221 371.487L539.371 332.097C539.371 332.097 587.131 368.597 579.511 423.707C573.261 422.127 564.411 420.627 556.911 422.087C554.731 404.397 548.211 385.197 532.221 371.487Z" fill="#F7991D"/>
<path d="M444.921 364.396L463.361 404.096C460.361 428.096 447.501 438.436 433.611 442.406C432.936 433.516 430.846 424.789 427.421 416.556C445.161 398.236 444.921 364.396 444.921 364.396Z" fill="#F7991D"/>
<path d="M427.421 416.557C430.846 424.789 432.936 433.516 433.611 442.407C396.611 456.777 386.771 428.907 386.771 428.907L393.621 427.697C409.081 429.327 419.881 424.347 427.421 416.557Z" fill="#FAAB77"/>
<path d="M461.911 315.377L470.811 348.097C471.046 348.964 471.462 349.771 472.031 350.466C472.6 351.161 473.31 351.727 474.114 352.128C474.918 352.528 475.798 352.754 476.695 352.79C477.593 352.826 478.488 352.671 479.321 352.337C483.7 350.615 487.983 348.659 492.151 346.477C493.2 345.904 494.117 345.119 494.844 344.172C495.572 343.224 496.094 342.135 496.376 340.975C496.659 339.814 496.695 338.607 496.484 337.431C496.274 336.256 495.819 335.137 495.151 334.147L476.651 306.557L461.911 315.377Z" fill="#FAAB77"/>
<path d="M442.431 290.527C442.351 291.087 449.861 327.857 449.861 327.857L470.761 323.127L468.831 287.217C468.831 287.217 443.791 281.117 442.431 290.527Z" fill="#FAAB77"/>
<path d="M464.131 295.217L466.631 314.047C466.666 314.285 466.666 314.528 466.631 314.767C466.421 316.237 465.321 321.267 460.251 319.827C455.651 318.527 451.431 317.407 448.521 318.297C447.89 318.486 447.352 318.905 447.015 319.472C446.678 320.039 446.566 320.711 446.701 321.357C447.858 327.186 449.466 332.916 451.511 338.497C451.754 339.111 452.218 339.612 452.813 339.901C453.407 340.19 454.088 340.245 454.721 340.057C458.721 338.907 466.981 336.227 473.151 332.517C473.561 332.271 473.897 331.919 474.124 331.499C474.351 331.078 474.461 330.604 474.441 330.127C474.241 325.377 473.681 310.937 474.151 306.887C474.591 303.087 479.261 300.807 481.281 299.987C481.61 299.858 481.909 299.663 482.158 299.414C482.408 299.164 482.603 298.865 482.731 298.537C483.671 296.177 484.971 290.737 478.111 288.537C477.771 288.429 477.456 288.253 477.185 288.02C476.915 287.787 476.695 287.502 476.538 287.181C476.38 286.86 476.29 286.511 476.272 286.155C476.254 285.798 476.308 285.442 476.431 285.107C477.431 282.277 477.871 277.957 472.561 275.587C467.251 273.217 463.141 276.037 460.971 278.377C460.544 278.828 459.971 279.115 459.354 279.188C458.736 279.261 458.113 279.115 457.591 278.777C457.232 278.547 456.811 278.431 456.384 278.445C455.957 278.46 455.545 278.603 455.201 278.857C454.889 279.044 454.541 279.164 454.18 279.208C453.818 279.253 453.452 279.221 453.103 279.116C452.755 279.011 452.432 278.833 452.156 278.596C451.881 278.358 451.657 278.066 451.501 277.737C450.211 275.087 447.581 272.247 442.301 273.147C432.931 274.757 431.871 285.147 434.301 291.217C436.731 297.287 446.831 294.987 451.871 291.917C455.711 289.587 460.691 292.027 462.871 293.337C463.208 293.536 463.496 293.809 463.714 294.134C463.932 294.459 464.075 294.829 464.131 295.217Z" fill="#13294D"/>
<path d="M474.981 313.747C474.981 313.747 471.131 302.967 475.091 300.317C479.051 297.667 484.911 299.047 483.621 306.867C482.011 316.587 474.981 313.747 474.981 313.747Z" fill="#FAAB77"/>
<path d="M389.521 434.007C387.651 435.467 381.271 432.427 377.361 430.317C376.435 429.825 375.71 429.025 375.312 428.055C374.914 427.086 374.868 426.007 375.181 425.007C376.121 422.007 377.691 418.217 379.621 417.727C382.831 416.927 397.201 428.007 389.521 434.007Z" fill="#E59A64"/>
<path d="M645.701 509.417L302.451 369.517L281.671 419.957L624.671 563.317C628.204 564.799 632.146 564.988 635.804 563.85C639.462 562.712 642.602 560.321 644.671 557.097C649.071 550.277 653.461 539.517 654.441 523.147C654.597 520.233 653.839 517.343 652.271 514.881C650.704 512.419 648.407 510.509 645.701 509.417Z" fill="#13294D"/>
<path d="M195.121 351.377L243.051 359.477C242.701 366.107 240.131 374.587 232.341 384.097L193.321 355.727C192.881 355.408 192.56 354.949 192.412 354.426C192.264 353.902 192.296 353.344 192.504 352.841C192.712 352.339 193.084 351.921 193.559 351.655C194.033 351.389 194.584 351.291 195.121 351.377Z" fill="#13294D"/>
<path d="M302.451 369.517C303.201 401.757 281.671 419.957 281.671 419.957L232.321 384.097C240.111 374.587 242.681 366.097 243.031 359.477L302.451 369.517Z" fill="url(#paint0_linear)"/>
<path d="M556.511 467.656L534.961 465.906L525.621 474.506C525.621 474.506 527.831 477.566 534.731 475.806C540.118 474.626 545.594 473.897 551.101 473.626C551.101 473.626 560.631 477.926 560.751 469.876L556.511 467.656Z" fill="#E59A64"/>
<mask id="path-35-inside-1" fill="white">
<rect x="11.001" y="133.212" width="55" height="55" rx="5" transform="rotate(-15 11.001 133.212)"/>
</mask>
<rect x="11.001" y="133.212" width="55" height="55" rx="5" transform="rotate(-15 11.001 133.212)" stroke="#F8C212" stroke-width="20" mask="url(#path-35-inside-1)"/>
<path d="M115.477 659.387L115.477 707.018L74.2269 683.203L115.477 659.387Z" stroke="#F8C212" stroke-width="10"/>
<circle cx="694.501" cy="152.477" r="22.5" stroke="#F8C212" stroke-width="10"/>
<line x1="693.986" y1="661.316" x2="721.368" y2="709.015" stroke="#F8C212" stroke-width="10" stroke-linecap="round"/>
<line x1="730.933" y1="671.157" x2="683.234" y2="698.539" stroke="#F8C212" stroke-width="10" stroke-linecap="round"/>
<defs>
<linearGradient id="paint0_linear" x1="255.642" y1="-682.633" x2="258.357" y2="-451.812" gradientUnits="userSpaceOnUse">
<stop stop-color="#F9BABA"/>
<stop offset="1" stop-color="#F5928F"/>
</linearGradient>
</defs>
</svg>
